<mxfile host="Electron" modified="2024-05-21T13:24:38.783Z" agent="Mozilla/5.0 (Windows NT 10.0; Win64; x64) AppleWebKit/537.36 (KHTML, like Gecko) draw.io/24.4.0 Chrome/120.0.6099.109 Electron/28.1.0 Safari/537.36" etag="WmMUjhTBDKLlxgPCvX4k" version="24.4.0" type="device">
  <diagram name="Page-1" id="Q84JpxTUtB8eKHwsURAz">
    <mxGraphModel dx="1098" dy="648" grid="1" gridSize="10" guides="1" tooltips="1" connect="1" arrows="1" fold="1" page="1" pageScale="1" pageWidth="850" pageHeight="1100" math="0" shadow="0">
      <root>
        <mxCell id="0" />
        <mxCell id="1" parent="0" />
        <mxCell id="gj_r4-L6k4WUbBIH_IOD-5" value="" style="edgeStyle=orthogonalEdgeStyle;rounded=0;orthogonalLoop=1;jettySize=auto;html=1;entryX=0.5;entryY=0;entryDx=0;entryDy=0;entryPerimeter=0;" parent="1" source="gj_r4-L6k4WUbBIH_IOD-3" target="gj_r4-L6k4WUbBIH_IOD-9" edge="1">
          <mxGeometry relative="1" as="geometry">
            <mxPoint x="200" y="160" as="targetPoint" />
          </mxGeometry>
        </mxCell>
        <mxCell id="gj_r4-L6k4WUbBIH_IOD-11" value="" style="edgeStyle=orthogonalEdgeStyle;rounded=0;orthogonalLoop=1;jettySize=auto;html=1;entryX=0.5;entryY=0;entryDx=0;entryDy=0;" parent="1" source="gj_r4-L6k4WUbBIH_IOD-3" target="gj_r4-L6k4WUbBIH_IOD-12" edge="1">
          <mxGeometry relative="1" as="geometry">
            <mxPoint x="400" y="160" as="targetPoint" />
          </mxGeometry>
        </mxCell>
        <mxCell id="gj_r4-L6k4WUbBIH_IOD-3" value="1" style="ellipse;whiteSpace=wrap;html=1;fillColor=#d5e8d4;strokeColor=#82b366;" parent="1" vertex="1">
          <mxGeometry x="270" y="100" width="40" height="40" as="geometry" />
        </mxCell>
        <mxCell id="gj_r4-L6k4WUbBIH_IOD-130" value="" style="edgeStyle=orthogonalEdgeStyle;rounded=0;orthogonalLoop=1;jettySize=auto;html=1;entryX=0;entryY=0.5;entryDx=0;entryDy=0;exitX=0.5;exitY=1;exitDx=0;exitDy=0;" parent="1" source="gj_r4-L6k4WUbBIH_IOD-9" target="gj_r4-L6k4WUbBIH_IOD-123" edge="1">
          <mxGeometry relative="1" as="geometry">
            <mxPoint x="169.99985207045893" y="209.9969230769231" as="sourcePoint" />
            <mxPoint x="190.46" y="1530" as="targetPoint" />
            <Array as="points">
              <mxPoint x="160" y="211" />
              <mxPoint x="208" y="211" />
              <mxPoint x="208" y="1505" />
            </Array>
          </mxGeometry>
        </mxCell>
        <mxCell id="gj_r4-L6k4WUbBIH_IOD-9" value="2" style="ellipse;whiteSpace=wrap;html=1;" parent="1" vertex="1">
          <mxGeometry x="140" y="160" width="40" height="40" as="geometry" />
        </mxCell>
        <mxCell id="gj_r4-L6k4WUbBIH_IOD-14" value="" style="edgeStyle=orthogonalEdgeStyle;rounded=0;orthogonalLoop=1;jettySize=auto;html=1;" parent="1" source="gj_r4-L6k4WUbBIH_IOD-12" edge="1">
          <mxGeometry relative="1" as="geometry">
            <mxPoint x="370" y="230" as="targetPoint" />
            <Array as="points">
              <mxPoint x="370" y="230" />
              <mxPoint x="370" y="230" />
            </Array>
          </mxGeometry>
        </mxCell>
        <mxCell id="gj_r4-L6k4WUbBIH_IOD-12" value="3" style="ellipse;whiteSpace=wrap;html=1;" parent="1" vertex="1">
          <mxGeometry x="350" y="160" width="40" height="40" as="geometry" />
        </mxCell>
        <mxCell id="gj_r4-L6k4WUbBIH_IOD-19" value="" style="edgeStyle=orthogonalEdgeStyle;rounded=0;orthogonalLoop=1;jettySize=auto;html=1;" parent="1" source="gj_r4-L6k4WUbBIH_IOD-15" edge="1">
          <mxGeometry relative="1" as="geometry">
            <mxPoint x="370" y="300" as="targetPoint" />
            <Array as="points">
              <mxPoint x="370" y="300" />
              <mxPoint x="370" y="300" />
            </Array>
          </mxGeometry>
        </mxCell>
        <mxCell id="gj_r4-L6k4WUbBIH_IOD-15" value="4.1" style="ellipse;whiteSpace=wrap;html=1;" parent="1" vertex="1">
          <mxGeometry x="347" y="230" width="45" height="40" as="geometry" />
        </mxCell>
        <mxCell id="gj_r4-L6k4WUbBIH_IOD-23" value="" style="edgeStyle=orthogonalEdgeStyle;rounded=0;orthogonalLoop=1;jettySize=auto;html=1;" parent="1" source="gj_r4-L6k4WUbBIH_IOD-20" edge="1">
          <mxGeometry relative="1" as="geometry">
            <mxPoint x="320" y="370" as="targetPoint" />
            <Array as="points">
              <mxPoint x="369" y="360" />
            </Array>
          </mxGeometry>
        </mxCell>
        <mxCell id="gj_r4-L6k4WUbBIH_IOD-105" value="" style="edgeStyle=orthogonalEdgeStyle;rounded=0;orthogonalLoop=1;jettySize=auto;html=1;" parent="1" source="gj_r4-L6k4WUbBIH_IOD-20" edge="1">
          <mxGeometry relative="1" as="geometry">
            <mxPoint x="882.2500000000005" y="1260" as="targetPoint" />
          </mxGeometry>
        </mxCell>
        <mxCell id="gj_r4-L6k4WUbBIH_IOD-20" value="4.2" style="ellipse;whiteSpace=wrap;html=1;fillColor=#d5e8d4;strokeColor=#82b366;" parent="1" vertex="1">
          <mxGeometry x="347" y="300" width="44.5" height="40" as="geometry" />
        </mxCell>
        <mxCell id="gj_r4-L6k4WUbBIH_IOD-26" value="" style="edgeStyle=orthogonalEdgeStyle;rounded=0;orthogonalLoop=1;jettySize=auto;html=1;" parent="1" source="gj_r4-L6k4WUbBIH_IOD-24" edge="1">
          <mxGeometry relative="1" as="geometry">
            <mxPoint x="319" y="430" as="targetPoint" />
          </mxGeometry>
        </mxCell>
        <mxCell id="gj_r4-L6k4WUbBIH_IOD-24" value="5" style="ellipse;whiteSpace=wrap;html=1;" parent="1" vertex="1">
          <mxGeometry x="294" y="370" width="50" height="40" as="geometry" />
        </mxCell>
        <mxCell id="gj_r4-L6k4WUbBIH_IOD-27" value="6" style="ellipse;whiteSpace=wrap;html=1;fillColor=#d5e8d4;strokeColor=#82b366;" parent="1" vertex="1">
          <mxGeometry x="299" y="430" width="46" height="40" as="geometry" />
        </mxCell>
        <mxCell id="gj_r4-L6k4WUbBIH_IOD-30" value="" style="endArrow=none;html=1;rounded=0;" parent="1" edge="1">
          <mxGeometry width="50" height="50" relative="1" as="geometry">
            <mxPoint x="320" y="510" as="sourcePoint" />
            <mxPoint x="320" y="470" as="targetPoint" />
          </mxGeometry>
        </mxCell>
        <mxCell id="gj_r4-L6k4WUbBIH_IOD-31" value="" style="endArrow=classic;startArrow=classic;html=1;rounded=0;" parent="1" edge="1">
          <mxGeometry width="50" height="50" relative="1" as="geometry">
            <mxPoint x="278" y="510" as="sourcePoint" />
            <mxPoint x="365" y="510" as="targetPoint" />
          </mxGeometry>
        </mxCell>
        <mxCell id="gj_r4-L6k4WUbBIH_IOD-32" value="7" style="ellipse;whiteSpace=wrap;html=1;" parent="1" vertex="1">
          <mxGeometry x="228" y="487" width="50" height="50" as="geometry" />
        </mxCell>
        <mxCell id="gj_r4-L6k4WUbBIH_IOD-37" value="" style="edgeStyle=orthogonalEdgeStyle;rounded=0;orthogonalLoop=1;jettySize=auto;html=1;" parent="1" source="gj_r4-L6k4WUbBIH_IOD-34" edge="1">
          <mxGeometry relative="1" as="geometry">
            <mxPoint x="390" y="580" as="targetPoint" />
          </mxGeometry>
        </mxCell>
        <mxCell id="gj_r4-L6k4WUbBIH_IOD-120" value="" style="edgeStyle=orthogonalEdgeStyle;rounded=0;orthogonalLoop=1;jettySize=auto;html=1;" parent="1" source="gj_r4-L6k4WUbBIH_IOD-34" target="gj_r4-L6k4WUbBIH_IOD-119" edge="1">
          <mxGeometry relative="1" as="geometry" />
        </mxCell>
        <mxCell id="gj_r4-L6k4WUbBIH_IOD-34" value="8" style="ellipse;whiteSpace=wrap;html=1;fillColor=#d5e8d4;strokeColor=#82b366;" parent="1" vertex="1">
          <mxGeometry x="365" y="487" width="50" height="50" as="geometry" />
        </mxCell>
        <mxCell id="gj_r4-L6k4WUbBIH_IOD-40" value="" style="edgeStyle=orthogonalEdgeStyle;rounded=0;orthogonalLoop=1;jettySize=auto;html=1;" parent="1" source="gj_r4-L6k4WUbBIH_IOD-38" target="gj_r4-L6k4WUbBIH_IOD-39" edge="1">
          <mxGeometry relative="1" as="geometry" />
        </mxCell>
        <mxCell id="gj_r4-L6k4WUbBIH_IOD-38" value="9,10" style="ellipse;whiteSpace=wrap;html=1;" parent="1" vertex="1">
          <mxGeometry x="365" y="580" width="50" height="50" as="geometry" />
        </mxCell>
        <mxCell id="gj_r4-L6k4WUbBIH_IOD-42" value="" style="edgeStyle=orthogonalEdgeStyle;rounded=0;orthogonalLoop=1;jettySize=auto;html=1;" parent="1" source="gj_r4-L6k4WUbBIH_IOD-39" target="gj_r4-L6k4WUbBIH_IOD-41" edge="1">
          <mxGeometry relative="1" as="geometry" />
        </mxCell>
        <mxCell id="gj_r4-L6k4WUbBIH_IOD-39" value="11.1" style="ellipse;whiteSpace=wrap;html=1;" parent="1" vertex="1">
          <mxGeometry x="366" y="681" width="50" height="50" as="geometry" />
        </mxCell>
        <mxCell id="gj_r4-L6k4WUbBIH_IOD-44" value="" style="edgeStyle=orthogonalEdgeStyle;rounded=0;orthogonalLoop=1;jettySize=auto;html=1;" parent="1" source="gj_r4-L6k4WUbBIH_IOD-41" target="gj_r4-L6k4WUbBIH_IOD-43" edge="1">
          <mxGeometry relative="1" as="geometry" />
        </mxCell>
        <mxCell id="gj_r4-L6k4WUbBIH_IOD-76" value="" style="edgeStyle=orthogonalEdgeStyle;rounded=0;orthogonalLoop=1;jettySize=auto;html=1;entryX=0.5;entryY=0;entryDx=0;entryDy=0;" parent="1" source="gj_r4-L6k4WUbBIH_IOD-41" target="gj_r4-L6k4WUbBIH_IOD-77" edge="1">
          <mxGeometry relative="1" as="geometry">
            <mxPoint x="750" y="706" as="targetPoint" />
          </mxGeometry>
        </mxCell>
        <mxCell id="gj_r4-L6k4WUbBIH_IOD-41" value="11.2" style="ellipse;whiteSpace=wrap;html=1;" parent="1" vertex="1">
          <mxGeometry x="489" y="680" width="48" height="52" as="geometry" />
        </mxCell>
        <mxCell id="gj_r4-L6k4WUbBIH_IOD-48" value="" style="edgeStyle=orthogonalEdgeStyle;rounded=0;orthogonalLoop=1;jettySize=auto;html=1;" parent="1" source="gj_r4-L6k4WUbBIH_IOD-43" target="gj_r4-L6k4WUbBIH_IOD-47" edge="1">
          <mxGeometry relative="1" as="geometry" />
        </mxCell>
        <mxCell id="gj_r4-L6k4WUbBIH_IOD-43" value="12" style="ellipse;whiteSpace=wrap;html=1;" parent="1" vertex="1">
          <mxGeometry x="446" y="780" width="50" height="50" as="geometry" />
        </mxCell>
        <mxCell id="gj_r4-L6k4WUbBIH_IOD-47" value="13" style="ellipse;whiteSpace=wrap;html=1;" parent="1" vertex="1">
          <mxGeometry x="446" y="880" width="50" height="50" as="geometry" />
        </mxCell>
        <mxCell id="gj_r4-L6k4WUbBIH_IOD-64" value="" style="endArrow=none;html=1;rounded=0;" parent="1" edge="1">
          <mxGeometry width="50" height="50" relative="1" as="geometry">
            <mxPoint x="471" y="950" as="sourcePoint" />
            <mxPoint x="471" y="930" as="targetPoint" />
          </mxGeometry>
        </mxCell>
        <mxCell id="gj_r4-L6k4WUbBIH_IOD-69" value="14" style="ellipse;whiteSpace=wrap;html=1;" parent="1" vertex="1">
          <mxGeometry x="379" y="925" width="50" height="50" as="geometry" />
        </mxCell>
        <mxCell id="gj_r4-L6k4WUbBIH_IOD-71" value="" style="endArrow=classic;startArrow=classic;html=1;rounded=0;" parent="1" edge="1">
          <mxGeometry width="50" height="50" relative="1" as="geometry">
            <mxPoint x="427.5" y="950" as="sourcePoint" />
            <mxPoint x="514.5" y="950" as="targetPoint" />
          </mxGeometry>
        </mxCell>
        <mxCell id="gj_r4-L6k4WUbBIH_IOD-74" value="" style="edgeStyle=orthogonalEdgeStyle;rounded=0;orthogonalLoop=1;jettySize=auto;html=1;entryX=1;entryY=1;entryDx=0;entryDy=0;" parent="1" source="gj_r4-L6k4WUbBIH_IOD-72" target="gj_r4-L6k4WUbBIH_IOD-41" edge="1">
          <mxGeometry relative="1" as="geometry">
            <mxPoint x="690" y="710" as="targetPoint" />
            <Array as="points">
              <mxPoint x="690" y="950" />
              <mxPoint x="690" y="724" />
            </Array>
          </mxGeometry>
        </mxCell>
        <mxCell id="gj_r4-L6k4WUbBIH_IOD-72" value="11.3" style="ellipse;whiteSpace=wrap;html=1;" parent="1" vertex="1">
          <mxGeometry x="516" y="925" width="50" height="50" as="geometry" />
        </mxCell>
        <mxCell id="gj_r4-L6k4WUbBIH_IOD-77" value="15" style="ellipse;whiteSpace=wrap;html=1;fillColor=#d5e8d4;strokeColor=#82b366;" parent="1" vertex="1">
          <mxGeometry x="730" y="940" width="50" height="50" as="geometry" />
        </mxCell>
        <mxCell id="gj_r4-L6k4WUbBIH_IOD-79" value="" style="endArrow=none;html=1;rounded=0;" parent="1" edge="1">
          <mxGeometry width="50" height="50" relative="1" as="geometry">
            <mxPoint x="757" y="1010" as="sourcePoint" />
            <mxPoint x="757" y="990" as="targetPoint" />
          </mxGeometry>
        </mxCell>
        <mxCell id="gj_r4-L6k4WUbBIH_IOD-81" value="" style="endArrow=classic;startArrow=classic;html=1;rounded=0;" parent="1" edge="1">
          <mxGeometry width="50" height="50" relative="1" as="geometry">
            <mxPoint x="711.5" y="1010" as="sourcePoint" />
            <mxPoint x="798.5" y="1010" as="targetPoint" />
          </mxGeometry>
        </mxCell>
        <mxCell id="gj_r4-L6k4WUbBIH_IOD-87" value="" style="edgeStyle=orthogonalEdgeStyle;rounded=0;orthogonalLoop=1;jettySize=auto;html=1;" parent="1" source="gj_r4-L6k4WUbBIH_IOD-82" target="gj_r4-L6k4WUbBIH_IOD-86" edge="1">
          <mxGeometry relative="1" as="geometry" />
        </mxCell>
        <mxCell id="gj_r4-L6k4WUbBIH_IOD-82" value="17" style="ellipse;whiteSpace=wrap;html=1;" parent="1" vertex="1">
          <mxGeometry x="661" y="988" width="50" height="50" as="geometry" />
        </mxCell>
        <mxCell id="gj_r4-L6k4WUbBIH_IOD-85" value="" style="edgeStyle=orthogonalEdgeStyle;rounded=0;orthogonalLoop=1;jettySize=auto;html=1;" parent="1" source="gj_r4-L6k4WUbBIH_IOD-83" target="gj_r4-L6k4WUbBIH_IOD-84" edge="1">
          <mxGeometry relative="1" as="geometry" />
        </mxCell>
        <mxCell id="gj_r4-L6k4WUbBIH_IOD-83" value="16" style="ellipse;whiteSpace=wrap;html=1;" parent="1" vertex="1">
          <mxGeometry x="800" y="987" width="50" height="50" as="geometry" />
        </mxCell>
        <mxCell id="gj_r4-L6k4WUbBIH_IOD-92" value="" style="edgeStyle=orthogonalEdgeStyle;rounded=0;orthogonalLoop=1;jettySize=auto;html=1;" parent="1" source="gj_r4-L6k4WUbBIH_IOD-84" target="gj_r4-L6k4WUbBIH_IOD-91" edge="1">
          <mxGeometry relative="1" as="geometry" />
        </mxCell>
        <mxCell id="gj_r4-L6k4WUbBIH_IOD-96" value="" style="edgeStyle=orthogonalEdgeStyle;rounded=0;orthogonalLoop=1;jettySize=auto;html=1;entryX=0;entryY=0;entryDx=0;entryDy=0;" parent="1" source="gj_r4-L6k4WUbBIH_IOD-84" target="gj_r4-L6k4WUbBIH_IOD-93" edge="1">
          <mxGeometry relative="1" as="geometry">
            <mxPoint x="1000" y="1190" as="targetPoint" />
            <Array as="points">
              <mxPoint x="1067" y="1130" />
            </Array>
          </mxGeometry>
        </mxCell>
        <mxCell id="gj_r4-L6k4WUbBIH_IOD-84" value="21" style="ellipse;whiteSpace=wrap;html=1;fillColor=#d5e8d4;strokeColor=#82b366;" parent="1" vertex="1">
          <mxGeometry x="800" y="1091" width="50" height="50" as="geometry" />
        </mxCell>
        <mxCell id="gj_r4-L6k4WUbBIH_IOD-88" value="" style="edgeStyle=orthogonalEdgeStyle;rounded=0;orthogonalLoop=1;jettySize=auto;html=1;" parent="1" source="gj_r4-L6k4WUbBIH_IOD-86" target="gj_r4-L6k4WUbBIH_IOD-84" edge="1">
          <mxGeometry relative="1" as="geometry" />
        </mxCell>
        <mxCell id="gj_r4-L6k4WUbBIH_IOD-86" value="18" style="ellipse;whiteSpace=wrap;html=1;" parent="1" vertex="1">
          <mxGeometry x="661" y="1091" width="50" height="50" as="geometry" />
        </mxCell>
        <mxCell id="gj_r4-L6k4WUbBIH_IOD-94" value="" style="edgeStyle=orthogonalEdgeStyle;rounded=0;orthogonalLoop=1;jettySize=auto;html=1;" parent="1" source="gj_r4-L6k4WUbBIH_IOD-91" target="gj_r4-L6k4WUbBIH_IOD-93" edge="1">
          <mxGeometry relative="1" as="geometry" />
        </mxCell>
        <mxCell id="gj_r4-L6k4WUbBIH_IOD-91" value="22" style="ellipse;whiteSpace=wrap;html=1;" parent="1" vertex="1">
          <mxGeometry x="800" y="1180" width="50" height="50" as="geometry" />
        </mxCell>
        <mxCell id="gj_r4-L6k4WUbBIH_IOD-100" value="" style="edgeStyle=orthogonalEdgeStyle;rounded=0;orthogonalLoop=1;jettySize=auto;html=1;entryX=1;entryY=0;entryDx=0;entryDy=0;" parent="1" target="gj_r4-L6k4WUbBIH_IOD-20" edge="1">
          <mxGeometry relative="1" as="geometry">
            <mxPoint x="1099.2299999999996" y="1189.999995818372" as="sourcePoint" />
            <mxPoint x="410.73000000001866" y="305" as="targetPoint" />
            <Array as="points">
              <mxPoint x="1099" y="306" />
            </Array>
          </mxGeometry>
        </mxCell>
        <mxCell id="gj_r4-L6k4WUbBIH_IOD-93" value="4.3" style="ellipse;whiteSpace=wrap;html=1;" parent="1" vertex="1">
          <mxGeometry x="1060" y="1190" width="50" height="50" as="geometry" />
        </mxCell>
        <mxCell id="gj_r4-L6k4WUbBIH_IOD-108" value="" style="edgeStyle=orthogonalEdgeStyle;rounded=0;orthogonalLoop=1;jettySize=auto;html=1;entryX=1;entryY=0;entryDx=0;entryDy=0;" parent="1" source="gj_r4-L6k4WUbBIH_IOD-117" target="gj_r4-L6k4WUbBIH_IOD-118" edge="1">
          <mxGeometry relative="1" as="geometry">
            <mxPoint x="850.0001060159534" y="1290.0769230769229" as="sourcePoint" />
            <mxPoint x="709.9999013805086" y="1270.0769230769229" as="targetPoint" />
          </mxGeometry>
        </mxCell>
        <mxCell id="gj_r4-L6k4WUbBIH_IOD-110" value="" style="edgeStyle=orthogonalEdgeStyle;rounded=0;orthogonalLoop=1;jettySize=auto;html=1;" parent="1" source="gj_r4-L6k4WUbBIH_IOD-117" edge="1">
          <mxGeometry relative="1" as="geometry">
            <mxPoint x="887.0769230769229" y="1319.6620709691351" as="sourcePoint" />
            <mxPoint x="704.4999100349119" y="1370.0769230769229" as="targetPoint" />
            <Array as="points">
              <mxPoint x="887" y="1350" />
              <mxPoint x="707" y="1350" />
              <mxPoint x="707" y="1370" />
            </Array>
          </mxGeometry>
        </mxCell>
        <mxCell id="gj_r4-L6k4WUbBIH_IOD-112" value="" style="edgeStyle=orthogonalEdgeStyle;rounded=0;orthogonalLoop=1;jettySize=auto;html=1;" parent="1" source="gj_r4-L6k4WUbBIH_IOD-114" edge="1">
          <mxGeometry relative="1" as="geometry">
            <mxPoint x="630.000089965089" y="1370.0769230769229" as="sourcePoint" />
            <mxPoint x="564.9999768915573" y="1370.5384615384614" as="targetPoint" />
          </mxGeometry>
        </mxCell>
        <mxCell id="gj_r4-L6k4WUbBIH_IOD-114" value="25" style="ellipse;whiteSpace=wrap;html=1;" parent="1" vertex="1">
          <mxGeometry x="655" y="1345.5" width="50" height="50" as="geometry" />
        </mxCell>
        <mxCell id="gj_r4-L6k4WUbBIH_IOD-126" value="" style="edgeStyle=orthogonalEdgeStyle;rounded=0;orthogonalLoop=1;jettySize=auto;html=1;entryX=1;entryY=0;entryDx=0;entryDy=0;" parent="1" edge="1">
          <mxGeometry relative="1" as="geometry">
            <mxPoint x="523.3200295858163" y="1370.5384615384614" as="sourcePoint" />
            <mxPoint x="293.9976695296635" y="1487.3223304703365" as="targetPoint" />
            <Array as="points">
              <mxPoint x="367.32" y="1371" />
              <mxPoint x="367.32" y="1490" />
              <mxPoint x="294.32" y="1490" />
            </Array>
          </mxGeometry>
        </mxCell>
        <mxCell id="gj_r4-L6k4WUbBIH_IOD-115" value="26" style="ellipse;whiteSpace=wrap;html=1;" parent="1" vertex="1">
          <mxGeometry x="516" y="1345.5" width="50" height="50" as="geometry" />
        </mxCell>
        <mxCell id="gj_r4-L6k4WUbBIH_IOD-117" value="23" style="ellipse;whiteSpace=wrap;html=1;fillColor=#d5e8d4;strokeColor=#82b366;" parent="1" vertex="1">
          <mxGeometry x="860" y="1260" width="50" height="50" as="geometry" />
        </mxCell>
        <mxCell id="gj_r4-L6k4WUbBIH_IOD-128" value="" style="edgeStyle=orthogonalEdgeStyle;rounded=0;orthogonalLoop=1;jettySize=auto;html=1;entryX=0.5;entryY=0;entryDx=0;entryDy=0;" parent="1" source="gj_r4-L6k4WUbBIH_IOD-118" target="gj_r4-L6k4WUbBIH_IOD-123" edge="1">
          <mxGeometry relative="1" as="geometry">
            <mxPoint x="550" y="1275" as="targetPoint" />
          </mxGeometry>
        </mxCell>
        <mxCell id="gj_r4-L6k4WUbBIH_IOD-118" value="24" style="ellipse;whiteSpace=wrap;html=1;" parent="1" vertex="1">
          <mxGeometry x="655" y="1250" width="50" height="50" as="geometry" />
        </mxCell>
        <mxCell id="gj_r4-L6k4WUbBIH_IOD-122" value="" style="edgeStyle=orthogonalEdgeStyle;rounded=0;orthogonalLoop=1;jettySize=auto;html=1;" parent="1" source="gj_r4-L6k4WUbBIH_IOD-119" target="gj_r4-L6k4WUbBIH_IOD-121" edge="1">
          <mxGeometry relative="1" as="geometry" />
        </mxCell>
        <mxCell id="gj_r4-L6k4WUbBIH_IOD-119" value="19" style="ellipse;whiteSpace=wrap;html=1;" parent="1" vertex="1">
          <mxGeometry x="960" y="938" width="50" height="50" as="geometry" />
        </mxCell>
        <mxCell id="gj_r4-L6k4WUbBIH_IOD-124" value="" style="edgeStyle=orthogonalEdgeStyle;rounded=0;orthogonalLoop=1;jettySize=auto;html=1;" parent="1" source="gj_r4-L6k4WUbBIH_IOD-121" target="gj_r4-L6k4WUbBIH_IOD-123" edge="1">
          <mxGeometry relative="1" as="geometry">
            <Array as="points">
              <mxPoint x="985" y="1515" />
            </Array>
          </mxGeometry>
        </mxCell>
        <mxCell id="gj_r4-L6k4WUbBIH_IOD-121" value="20" style="ellipse;whiteSpace=wrap;html=1;" parent="1" vertex="1">
          <mxGeometry x="960" y="1068" width="50" height="50" as="geometry" />
        </mxCell>
        <mxCell id="gj_r4-L6k4WUbBIH_IOD-123" value="27" style="ellipse;whiteSpace=wrap;html=1;" parent="1" vertex="1">
          <mxGeometry x="244" y="1480" width="50" height="50" as="geometry" />
        </mxCell>
      </root>
    </mxGraphModel>
  </diagram>
</mxfile>
